<svg width="41" height="40" viewBox="0 0 41 40" fill="none" xmlns="http://www.w3.org/2000/svg">
<path d="M30.25 1H10.75C5.36522 1 1 5.25329 1 10.5V29.5C1 34.7467 5.36522 39 10.75 39H30.25C35.6348 39 40 34.7467 40 29.5V10.5C40 5.25329 35.6348 1 30.25 1Z" stroke="white" stroke-width="2" stroke-linecap="round" stroke-linejoin="round"/>
<path d="M27.9189 19.2532C28.1503 21.0217 27.8837 22.8279 27.1572 24.4148C26.4306 26.0018 25.281 27.2887 23.8719 28.0925C22.4628 28.8963 20.866 29.1761 19.3085 28.892C17.751 28.608 16.3122 27.7746 15.1967 26.5104C14.0812 25.2462 13.3459 23.6155 13.0953 21.8504C12.8446 20.0852 13.0915 18.2755 13.8007 16.6785C14.51 15.0815 15.6455 13.7786 17.0457 12.9552C18.446 12.1318 20.0397 11.8297 21.6001 12.0919C23.1919 12.3595 24.6655 13.2001 25.8033 14.4896C26.9411 15.7791 27.6828 17.4492 27.9189 19.2532Z" stroke="white" stroke-width="2" stroke-linecap="round" stroke-linejoin="round"/>
</svg>
