<svg width="44" height="40" viewBox="0 0 44 40" fill="none" xmlns="http://www.w3.org/2000/svg">
<path d="M43 1.0213C41.1718 2.45178 39.1477 3.54587 37.0055 4.26143C35.8557 2.79492 34.3276 1.7555 32.628 1.28374C30.9283 0.811979 29.139 0.930647 27.5022 1.62369C25.8653 2.31674 24.4598 3.55072 23.4757 5.15875C22.4916 6.76678 21.9765 8.67127 22 10.6146V12.7324C18.645 12.8289 15.3206 12.0035 12.3228 10.3297C9.32506 8.65591 6.74697 6.18568 4.81818 3.13903C4.81818 3.13903 -2.81818 22.1987 14.3636 30.6696C10.4319 33.6301 5.74821 35.1146 1 34.9051C18.1818 45.4938 39.1818 34.9051 39.1818 10.5511C39.1801 9.96122 39.1289 9.37279 39.0291 8.79339C40.9775 6.66187 42.3525 3.97069 43 1.0213Z" stroke="white" stroke-width="2" stroke-linecap="round" stroke-linejoin="round"/>
</svg>
